<?xml version="1.0" encoding="UTF-8" standalone="no"?>
<!-- Created with Inkscape (http://www.inkscape.org/) -->

<svg
   width="60"
   height="60"
   viewBox="0 0 12 12"
   version="1.1"
   id="svg1"
   inkscape:version="1.4 (86a8ad7, 2024-10-11)"
   sodipodi:docname="import-btn0.svg"
   xmlns:inkscape="http://www.inkscape.org/namespaces/inkscape"
   xmlns:sodipodi="http://sodipodi.sourceforge.net/DTD/sodipodi-0.dtd"
   xmlns:xlink="http://www.w3.org/1999/xlink"
   xmlns="http://www.w3.org/2000/svg"
   xmlns:svg="http://www.w3.org/2000/svg">
  <sodipodi:namedview
     id="namedview1"
     pagecolor="#222222"
     bordercolor="#eeeeee"
     borderopacity="1"
     inkscape:showpageshadow="0"
     inkscape:pageopacity="0"
     inkscape:pagecheckerboard="0"
     inkscape:deskcolor="#222222"
     inkscape:document-units="px"
     showguides="false"
     inkscape:zoom="5.5090348"
     inkscape:cx="40.20668"
     inkscape:cy="16.60908"
     inkscape:window-width="1920"
     inkscape:window-height="991"
     inkscape:window-x="-9"
     inkscape:window-y="-9"
     inkscape:window-maximized="1"
     inkscape:current-layer="layer1" />
  <defs
     id="defs1">
    <linearGradient
       id="linearGradient8"
       inkscape:collect="always">
      <stop
         style="stop-color:#00961e;stop-opacity:1;"
         offset="0"
         id="stop8" />
      <stop
         style="stop-color:#4796da;stop-opacity:1;"
         offset="1"
         id="stop9" />
    </linearGradient>
    <linearGradient
       inkscape:collect="always"
       xlink:href="#linearGradient8"
       id="linearGradient9"
       x1="1.78152"
       y1="0.99896008"
       x2="10.981521"
       y2="11.127776"
       gradientUnits="userSpaceOnUse" />
  </defs>
  <g
     inkscape:label="Layer 1"
     inkscape:groupmode="layer"
     id="layer1">
    <path
       d="M 6,0.8 C 5.5568,0.8 5.2,1.2565321 5.2,1.8238281 V 4.46875 L 4.5664062,3.8351563 c -0.3133896,-0.3133898 -0.8178602,-0.3133898 -1.1312499,0 -0.3133898,0.3133897 -0.3133898,0.8178603 0,1.1312499 l 1.9796874,1.9800782 c 0.09355,0.09355 0.2044213,0.158395 0.3218751,0.1960937 C 5.8192267,7.1792125 5.9075088,7.2 6,7.2 6.1166562,7.2 6.2271997,7.1679079 6.3269531,7.1109375 6.413635,7.0720748 6.4950394,7.0178512 6.5664062,6.9464844 L 8.5464844,4.9664062 c 0.3133897,-0.3133896 0.3133897,-0.8178602 0,-1.1312499 C 8.3897895,3.6784614 8.1850316,3.6 7.9804687,3.6 7.7759061,3.6 7.5715386,3.6784614 7.4148437,3.8351563 L 6.8,4.45 V 1.8238281 C 6.8,1.2565321 6.4432,0.8 6,0.8 Z m -3.6,5 C 1.9568,5.8 1.6,6.1568 1.6,6.6 v 2 C 1.60313,8.9560876 1.685456,9.3070169 1.8410156,9.6273438 2.0776475,10.12292 2.4770804,10.522353 2.9726563,10.758984 3.2929829,10.914544 3.6439124,10.996873 4,11 H 8.4 C 8.7560876,10.9969 9.107017,10.91454 9.4273438,10.758984 9.9229195,10.522353 10.322353,10.12292 10.558984,9.6273438 10.714544,9.3070169 10.796873,8.9560876 10.8,8.6 v -2 C 10.8,6.1568 10.4432,5.8 10,5.8 9.6435643,5.8 9.3434699,6.0310578 9.2394531,6.3519531 9.2141332,6.4300661 9.2,6.5132357 9.2,6.6 v 2 C 9.2,9.0418278 8.8418278,9.4 8.4,9.4 H 6.2605469 6.1394531 4 C 3.5581722,9.4 3.2,9.0418278 3.2,8.6 v -2 C 3.2,6.5138015 3.1859414,6.4311883 3.1609375,6.3535156 3.0573808,6.0318248 2.7570015,5.8 2.4,5.8 Z"
       style="stroke:#f8bb6a;stroke-width:0;stroke-linecap:round;stroke-linejoin:round;fill:url(#linearGradient9)"
       id="path8" />
  </g>
</svg>
