<?xml version="1.0" encoding="UTF-8" standalone="no"?>
<!-- Created with Inkscape (http://www.inkscape.org/) -->

<svg
   width="60"
   height="60"
   viewBox="0 0 12 12"
   version="1.1"
   id="svg1"
   inkscape:version="1.4 (86a8ad7, 2024-10-11)"
   sodipodi:docname="quit-btn0.svg"
   xmlns:inkscape="http://www.inkscape.org/namespaces/inkscape"
   xmlns:sodipodi="http://sodipodi.sourceforge.net/DTD/sodipodi-0.dtd"
   xmlns:xlink="http://www.w3.org/1999/xlink"
   xmlns="http://www.w3.org/2000/svg"
   xmlns:svg="http://www.w3.org/2000/svg">
  <sodipodi:namedview
     id="namedview1"
     pagecolor="#222222"
     bordercolor="#eeeeee"
     borderopacity="1"
     inkscape:showpageshadow="0"
     inkscape:pageopacity="0"
     inkscape:pagecheckerboard="0"
     inkscape:deskcolor="#222222"
     inkscape:document-units="px"
     inkscape:zoom="7.7909517"
     inkscape:cx="34.334701"
     inkscape:cy="28.687124"
     inkscape:window-width="1920"
     inkscape:window-height="991"
     inkscape:window-x="-9"
     inkscape:window-y="-9"
     inkscape:window-maximized="1"
     inkscape:current-layer="layer1" />
  <defs
     id="defs1">
    <linearGradient
       id="linearGradient3"
       inkscape:collect="always">
      <stop
         style="stop-color:#ff0000;stop-opacity:1;"
         offset="0"
         id="stop3" />
      <stop
         style="stop-color:#ff0053;stop-opacity:1;"
         offset="1"
         id="stop4" />
    </linearGradient>
    <linearGradient
       inkscape:collect="always"
       xlink:href="#linearGradient3"
       id="linearGradient4"
       x1="1.5288801"
       y1="1.6616341"
       x2="9.4442873"
       y2="9.465559"
       gradientUnits="userSpaceOnUse" />
  </defs>
  <g
     inkscape:label="Layer 1"
     inkscape:groupmode="layer"
     id="layer1">
    <path
       d="m 3.1714844,2.1707031 c -0.2556191,0 -0.5111627,0.097881 -0.7070313,0.29375 -0.3917372,0.3917372 -0.3917372,1.0223253 0,1.4140625 L 4.5859375,6 2.4644531,8.1214844 c -0.3917372,0.3917372 -0.3917372,1.0223253 0,1.4140625 0.3917372,0.3917372 1.0223253,0.3917372 1.4140625,0 L 6,7.4140625 8.1214844,9.5355469 c 0.3917372,0.3917372 1.0223253,0.3917372 1.4140625,0 0.3917372,-0.3917372 0.3917372,-1.0223253 0,-1.4140625 L 7.4140625,6 9.5355469,3.8785156 c 0.3917372,-0.3917372 0.3917372,-1.0223253 0,-1.4140625 -0.3917372,-0.3917372 -1.0223253,-0.3917372 -1.4140625,0 L 6,4.5859375 3.8785156,2.4644531 C 3.682647,2.2685845 3.4271035,2.1707031 3.1714844,2.1707031 Z"
       style="stroke:#f8bb6a;stroke-width:0;stroke-linecap:round;stroke-linejoin:round;fill:url(#linearGradient4)"
       id="path3" />
  </g>
</svg>
