<svg xmlns="http://www.w3.org/2000/svg" width="504.47999267578126" height="163.30404329591514"
    viewBox="0 0 370.00000000000006 119.77183812385773" class="looka-1j8o68f">
    <defs>
        <linearGradient id="briiklyGradient" x1="0%" y1="0%" x2="100%" y2="100%">
            <stop offset="0%" style="stop-color:#30D5C8;stop-opacity:1" />
            <stop offset="100%" style="stop-color:#20C1B2;stop-opacity:1" />
        </linearGradient>
    </defs>
    <defs id="SvgjsDefs2494" />
    <g id="SvgjsG2495" featurekey="AgVF85-0"
        transform="matrix(0.9552167799592208,0,0,0.9552167799592208,-18.429362844346862,-5.948997070480033)"
        fill="url(#briiklyGradient)">
        <path
            d="M96.63 57.12q11.83 7.36 23.98 14.42c4.75 2.76 4.29 5.89-.18 8.46q-3.3 1.89-6.48 3.64-.8.44-.02.91l6.97 4.19a4.64 4.63-74.5 0 1 2.24 3.97v17.42a4.2 4.2 0 0 1-2.05 3.61q-10.37 6.18-21.01 12.58c-2.5 1.51-3.82 1.71-6.39.13q-13.16-8.08-21.94-13.31a.63.63 0 0 0-.64 0l-23.23 13.88a4.18 4.15 45 0 1-4.27-.01l-21.55-12.96a3.87 3.86 15.6 0 1-1.87-3.31q.01-11.33-.01-17.49-.02-3.31 2.55-4.76 3.07-1.73 6.62-4.05a.31.31 0 0 0-.02-.53q-6.07-3.54-8.62-5.19-1.57-1.02-1.4-3.41c.15-1.92 1.7-2.78 3.31-3.74q9.73-5.76 23.85-14.27.46-.28.16-.73c-.49-.73-1.02-1.43-1.03-2.51q-.02-17.99.01-25.14a4.73 4.72 74.6 0 1 2.28-4.03q9.96-5.99 20.84-12.4 2.97-1.75 5.04-.52 15.95 9.45 20.69 12.07 3.17 1.74 3.2 4.7.1 12.03-.04 25.02-.01.82-1.17 2.58-.31.48.18.78m-25.56-12.7q.53-2.61 2.69-3.93 5.89-3.61 17.45-11.03a.31.31 0 0 0-.01-.53L72.17 17.49a.79.79 0 0 0-.82 0L52.33 28.85a1.95 1.95 0 0 0-.94 1.67v22.29a2.23 2.22 15.7 0 0 1.07 1.9l18.03 10.84a.36.35-74.5 0 0 .54-.31l.02-20.56a1.77 1.64-42.8 0 1 .02-.26m26.42 28.32c2.06 1.44 2.23 4.4-.02 5.75Q79.09 89.54 73.35 92.96a3.74 3.72 44.9 0 1-3.83-.01Q59.11 86.71 47.76 79.7c-1.31-.81-2.87-1.56-3.41-2.97-.87-2.26.63-3.76 2.48-4.89q5.13-3.1 11.23-6.78a.16.16 0 0 0 0-.27l-6.3-3.78q-.24-.15-.48 0L27.46 75.24a.47.47 0 0 0-.01.81l43.38 26.09a1.14 1.12 44.6 0 0 1.15 0l43.89-26.22a.3.3 0 0 0 0-.52L91.29 60.62q-.17-.11-.34 0l-6.4 3.82a.18.17 44 0 0 .01.3q8.83 5.14 12.93 8m-32 11.01q0 .18.08.23 2.9 1.66 5.73 3.44.01.01.14.02.06.01.12.01t.12-.01q.13-.01.14-.02 2.83-1.78 5.73-3.44.07-.05.07-.23t-.07-.23q-2.9-1.66-5.73-3.44-.01-.01-.14-.02-.06-.01-.12-.01t-.12.01q-.13.01-.14.02-2.83 1.78-5.73 3.44-.08.05-.08.23M45.6 121.56a.35.35 0 0 0 .36 0l22.62-13.51a.35.35 0 0 0 0-.6l-19.1-11.48a.35.35 0 0 0-.36 0l-22.62 13.5a.35.35 0 0 0 0 .6zm70.54-11.46a.34.34 0 0 0 0-.58L93.65 95.99a.34.34 0 0 0-.34 0l-19.13 11.43a.34.34 0 0 0 0 .58l22.49 13.53a.34.34 0 0 0 .34 0z" />
    </g>
    <g id="SvgjsG2496" featurekey="vRT5cH-0"
        transform="matrix(5.278558409718296,0,0,5.278558409718296,111.66727184044217,-23.859071326182228)"
        fill="url(#briiklyGradient)">
        <path transform="translate(0,2.5)"
            d="M6.82 20.3 c-0.64 0 -1.2466 -0.10996 -1.82 -0.32996 s-1.0933 -0.53 -1.56 -0.93 l0 0.38 c0 0.24 -0.08666 0.44666 -0.26 0.62 s-0.38 0.26 -0.62 0.26 c-0.25334 0 -0.46668 -0.08666 -0.64002 -0.26 s-0.26 -0.38 -0.26 -0.62 l-0.08 -14.02 c-0.01334 -0.24 0.07 -0.44666 0.25 -0.62 s0.39 -0.26 0.63 -0.26 c0.25334 0 0.46334 0.08666 0.63 0.26 s0.25 0.38 0.25 0.62 l0.08 5.88 c0.46666 -0.41334 0.99 -0.73 1.57 -0.95 s1.19 -0.33 1.83 -0.33 c0.70666 0 1.3733 0.13666 2 0.41 s1.1733 0.64334 1.64 1.11 s0.83332 1.0133 1.1 1.64 s0.4 1.2933 0.4 2 s-0.13334 1.37 -0.4 1.99 s-0.63332 1.1633 -1.1 1.63 s-1.0133 0.83666 -1.64 1.11 s-1.2933 0.41 -2 0.41 z M6.82 11.78 c-0.46666 0 -0.90332 0.09 -1.31 0.27 s-0.76332 0.42334 -1.07 0.73 s-0.55 0.66332 -0.73 1.07 s-0.27 0.84332 -0.27 1.31 s0.09 0.90332 0.27 1.31 s0.42334 0.76332 0.73 1.07 s0.66332 0.54666 1.07 0.72 s0.84332 0.26 1.31 0.26 s0.90332 -0.08666 1.31 -0.26 s0.76332 -0.41334 1.07 -0.72 s0.54666 -0.66332 0.72 -1.07 s0.26 -0.84332 0.26 -1.31 s-0.08666 -0.90332 -0.26 -1.31 s-0.41334 -0.76332 -0.72 -1.07 s-0.66332 -0.55 -1.07 -0.73 s-0.84332 -0.27 -1.31 -0.27 z M16.12 10.58 c0.21334 -0.18666 0.45006 -0.33002 0.71006 -0.43002 s0.52334 -0.15 0.79 -0.15 c0.65334 0 1.19 0.16 1.61 0.48 s0.74334 0.78 0.97 1.38 c0.05334 0.13334 0.07334 0.27334 0.06 0.42 s-0.05668 0.28 -0.13002 0.4 s-0.17334 0.21666 -0.3 0.29 s-0.27666 0.11 -0.45 0.11 c-0.14666 0 -0.27666 -0.03334 -0.39 -0.1 s-0.21 -0.14666 -0.29 -0.24 c-0.06666 -0.08 -0.12332 -0.16334 -0.16998 -0.25 s-0.09666 -0.17666 -0.15 -0.27 c-0.09334 -0.14666 -0.19668 -0.26666 -0.31002 -0.36 s-0.30334 -0.12668 -0.57 -0.10002 c-0.17334 0.01334 -0.34 0.06668 -0.5 0.16002 s-0.3 0.20668 -0.42 0.34002 s-0.21666 0.28334 -0.29 0.45 s-0.11 0.33666 -0.11 0.51 l0 6.2 c0 0.24 -0.08666 0.44666 -0.26 0.62 s-0.38 0.26 -0.62 0.26 c-0.25334 0 -0.46668 -0.08666 -0.64002 -0.26 s-0.26 -0.38 -0.26 -0.62 l0 -8.54 c0 -0.24 0.08666 -0.44666 0.26 -0.62 s0.38668 -0.26 0.64002 -0.26 c0.18666 0 0.35332 0.05334 0.49998 0.16 s0.25332 0.24666 0.31998 0.42 z M25.14 8.04 c-0.32 0 -0.59666 -0.11666 -0.83 -0.35 s-0.35 -0.51 -0.35 -0.83 c0 -0.33334 0.11334 -0.61334 0.34 -0.84 s0.50666 -0.34 0.84 -0.34 s0.61334 0.11334 0.84 0.34 s0.34 0.50666 0.34 0.84 c0 0.32 -0.11666 0.59666 -0.35 0.83 s-0.51 0.35 -0.83 0.35 z M21.740000000000002 8.04 c-0.32 0 -0.59666 -0.11666 -0.83 -0.35 s-0.35 -0.51 -0.35 -0.83 c0 -0.33334 0.11334 -0.61334 0.34 -0.84 s0.50666 -0.34 0.84 -0.34 s0.61334 0.11334 0.84 0.34 s0.34 0.50666 0.34 0.84 c0 0.32 -0.11666 0.59666 -0.35 0.83 s-0.51 0.35 -0.83 0.35 z M23.62 20.3 c-0.25334 0 -0.46668 -0.08666 -0.64002 -0.26 s-0.26 -0.38 -0.26 -0.62 l0 -8.54 c0 -0.24 0.08666 -0.44666 0.26 -0.62 s0.38668 -0.26 0.64002 -0.26 c0.24 0 0.44666 0.08666 0.62 0.26 s0.26 0.38 0.26 0.62 l0 8.54 c0 0.24 -0.08666 0.44666 -0.26 0.62 s-0.38 0.26 -0.62 0.26 z M34.42 11.48 l-3.8 3.64 l3.8 3.66 c0.18666 0.16 0.28 0.37334 0.28 0.64 c0 0.24 -0.08666 0.44666 -0.26 0.62 s-0.38 0.26 -0.62 0.26 c-0.25334 0 -0.46 -0.08 -0.62 -0.24 l-3.88 -3.72 l0 3.08 c0 0.24 -0.08666 0.44666 -0.26 0.62 s-0.38 0.26 -0.62 0.26 s-0.44666 -0.08666 -0.62 -0.26 s-0.26 -0.38 -0.26 -0.62 l0 -14.02 c0 -0.24 0.08666 -0.44666 0.26 -0.62 s0.38 -0.26 0.62 -0.26 s0.44666 0.08666 0.62 0.26 s0.26 0.38 0.26 0.62 l0 8.52 l3.88 -3.72 c0.16 -0.16 0.36666 -0.24 0.62 -0.24 c0.24 0 0.44666 0.08666 0.62 0.26 s0.26 0.38 0.26 0.62 s-0.09334 0.45334 -0.28 0.64 z M37.580000000000005 20.3 c-0.24 0 -0.44666 -0.08666 -0.62 -0.26 s-0.26 -0.38 -0.26 -0.62 l0 -14.02 c0 -0.24 0.08666 -0.44666 0.26 -0.62 s0.38 -0.26 0.62 -0.26 s0.44666 0.08666 0.62 0.26 s0.26 0.38 0.26 0.62 l0 14.02 c0 0.24 -0.08666 0.44666 -0.26 0.62 s-0.38 0.26 -0.62 0.26 z M48.86000000000001 11.22 l-3.34 8.28 l-1.74 4.24 c-0.06666 0.17334 -0.17332 0.31 -0.31998 0.41 s-0.31332 0.15 -0.49998 0.15 c-0.24 0 -0.44666 -0.08666 -0.62 -0.26 s-0.26 -0.38 -0.26 -0.62 c0 -0.12 0.02 -0.23334 0.06 -0.34 l1.6 -3.92 l-3.2 -7.94 c-0.04 -0.09334 -0.06 -0.20668 -0.06 -0.34002 c0 -0.24 0.08666 -0.44666 0.26 -0.62 s0.38 -0.26 0.62 -0.26 c0.18666 0 0.35666 0.05 0.51 0.15 s0.26334 0.23666 0.33 0.41 l2.5 6.4 l2.52 -6.4 c0.06666 -0.17334 0.17332 -0.31 0.31998 -0.41 s0.31332 -0.15 0.49998 -0.15 c0.25334 0 0.46668 0.08666 0.64002 0.26 s0.26 0.38 0.26 0.62 c0 0.13334 -0.02666 0.24668 -0.08 0.34002 z" />
    </g>
</svg>