<?xml version="1.0" encoding="UTF-8" standalone="no"?>
<!-- Created with Inkscape (http://www.inkscape.org/) -->

<svg
   width="60"
   height="60"
   viewBox="0 0 12 12"
   version="1.1"
   id="svg1"
   inkscape:version="1.4 (86a8ad7, 2024-10-11)"
   sodipodi:docname="sensor.svg"
   xmlns:inkscape="http://www.inkscape.org/namespaces/inkscape"
   xmlns:sodipodi="http://sodipodi.sourceforge.net/DTD/sodipodi-0.dtd"
   xmlns="http://www.w3.org/2000/svg"
   xmlns:svg="http://www.w3.org/2000/svg">
  <sodipodi:namedview
     id="namedview1"
     pagecolor="#222222"
     bordercolor="#eeeeee"
     borderopacity="1"
     inkscape:showpageshadow="0"
     inkscape:pageopacity="0"
     inkscape:pagecheckerboard="0"
     inkscape:deskcolor="#222222"
     inkscape:document-units="px"
     inkscape:zoom="8"
     inkscape:cx="27.9375"
     inkscape:cy="17.8125"
     inkscape:window-width="1920"
     inkscape:window-height="991"
     inkscape:window-x="-9"
     inkscape:window-y="-9"
     inkscape:window-maximized="1"
     inkscape:current-layer="layer1" />
  <defs
     id="defs1" />
  <g
     inkscape:label="Layer 1"
     inkscape:groupmode="layer"
     id="layer1">
    <path
       d="M 8.6588322,2.4 C 7.64715,2.4017278 6.702132,2.9271724 6.1373617,3.8022276 c -0.00203,0.00284 -0.00382,0.00568 -0.00584,0.00853 -0.00434,0.00605 -0.00894,0.012149 -0.013232,0.018231 -5.01e-4,0.00126 -6.834e-4,0.00261 -0.00117,0.00388 -0.029082,0.030408 -0.047495,0.090533 -0.047869,0.1563202 3.737e-4,0.065787 0.018787,0.1255251 0.047869,0.1559324 4.117e-4,0.00109 7.445e-4,0.00241 0.00117,0.0035 0.0043,0.00608 0.0085,0.012184 0.012843,0.018231 0.00202,0.00285 0.00419,0.00568 0.00623,0.00853 0.5647687,0.8750506 1.5093981,1.4005002 2.5210802,1.4022276 1.0071745,-0.00194 1.9481141,-0.522939 2.5136871,-1.3917544 0.0046,-0.00623 0.0091,-0.012356 0.01362,-0.018619 0.0057,-0.00805 0.01144,-0.016326 0.01713,-0.024437 5.81e-4,-0.00192 9.13e-4,-0.00389 0.0016,-0.00582 0.02795,-0.032361 0.04509,-0.087776 0.04553,-0.1477867 -8.1e-5,-0.060887 -0.01713,-0.1174402 -0.04553,-0.1501139 -3.94e-4,-0.00137 -6.89e-4,-0.00291 -0.0012,-0.00427 -0.0057,-0.00811 -0.01138,-0.016384 -0.01713,-0.024437 -0.0045,-0.00626 -0.0091,-0.01239 -0.01362,-0.018619 C 10.606959,2.9229259 9.6660064,2.4019328 8.6588322,2.4 Z m 0,0.511241 C 9.4674327,2.9135956 10.224036,3.3153074 10.702784,3.9884154 10.224055,4.6618191 9.4672389,5.064008 8.6584429,5.0663657 7.8498776,5.0640687 7.0933094,4.6623026 6.6144912,3.9891912 7.0932868,3.3157266 7.8500321,2.9135385 8.6588322,2.911241 Z M 8.5086103,3.1944017 c -0.4668202,4.96e-5 -0.8452402,0.3772207 -0.84529,0.8425002 4.98e-5,0.4652794 0.3784698,0.8424505 0.84529,0.8425001 0.4668201,-4.96e-5 0.8452401,-0.3772207 0.84529,-0.8425001 -4.99e-5,-0.4652795 -0.3784699,-0.8424506 -0.84529,-0.8425002 z m 0,0.2730755 C 8.8241156,3.4675269 9.0798706,3.7224379 9.0799204,4.0369019 9.0798706,4.3513658 8.8241156,4.6062768 8.5086103,4.6063265 8.193105,4.6062768 7.9373499,4.3513658 7.9373001,4.0369019 7.9373499,3.7224379 8.193105,3.4675269 8.5086103,3.4674772 Z M 4.9503752,5.4344747 c -0.00321,3.06e-5 -0.00651,0.00103 -0.00973,0.00116 C 4.8400316,5.43586 4.7423548,5.4860274 4.6861243,5.5783806 L 3.7190227,7.1664099 H 1.0488871 C 0.88330363,7.1664099 0.75,7.2992736 0.75,7.4643106 c 0,0.1650369 0.13330363,0.2979006 0.2988871,0.2979006 h 2.7896127 c 0.00774,0 0.014978,-0.00176 0.022572,-0.00232 0.1098923,0.00985 0.2204541,-0.040499 0.2817631,-0.1411926 L 4.4183718,7.1664099 4.8145528,6.515916 4.9538779,7.1664099 5.0815275,7.7622112 5.5107885,9.7652825 c 0.031211,0.1456484 0.1633936,0.2419945 0.3078381,0.2342865 0.129457,0.00219 0.2496254,-0.078906 0.289936,-0.2086856 L 6.7390275,7.7622112 h 0.705576 C 7.5663829,8.070733 7.8638681,8.274694 8.1964913,8.2777189 8.647087,8.2775701 9.0122694,7.9134192 9.0122039,7.4643106 9.0122694,7.0152019 8.647087,6.651051 8.1964913,6.6509022 7.8638681,6.6539271 7.5663829,6.8578882 7.4446035,7.1664099 H 6.8787417 6.5183649 6.2984804 l -0.058377,0.1877395 -0.00117,0.0035 c -0.00231,0.00598 -0.00469,0.012073 -0.00662,0.01823 -0.00252,0.00807 -0.00478,0.016088 -0.00662,0.024437 L 6.1132327,7.7622112 5.8645494,8.563207 5.6929228,7.7622112 5.5652731,7.1664099 5.2445922,5.6703127 C 5.2143298,5.5290905 5.089611,5.4331464 4.9503752,5.4344747 Z m 3.2461161,1.5829849 c 0.247606,0 0.4483306,0.200062 0.4483306,0.446851 0,0.2467889 -0.2007246,0.4468509 -0.4483306,0.4468509 C 8.0706314,7.909777 7.9511524,7.8557245 7.8672484,7.7622112 7.7919397,7.6810168 7.7495093,7.5748762 7.7481606,7.4643106 7.7495093,7.3537449 7.7919397,7.2476043 7.8672484,7.1664099 7.9511524,7.0728966 8.0706314,7.0188441 8.1964913,7.0174596 Z"
       style="fill:#6599c3;fill-opacity:1;stroke-width:0.414518;stroke-linecap:round;stroke-linejoin:round"
       id="path16" />
    <circle
       style="fill:#d90c30;fill-opacity:1;stroke-width:0.6;stroke-linecap:round;stroke-linejoin:round"
       id="path12"
       cx="780.84851"
       cy="3.3085282"
       r="0.84852809" />
  </g>
</svg>
