<?xml version="1.0" encoding="UTF-8" standalone="no"?>
<!-- Created with Inkscape (http://www.inkscape.org/) -->

<svg
   width="60"
   height="60"
   viewBox="0 0 12 12"
   version="1.1"
   id="svg1"
   inkscape:version="1.4 (86a8ad7, 2024-10-11)"
   sodipodi:docname="import.svg"
   xmlns:inkscape="http://www.inkscape.org/namespaces/inkscape"
   xmlns:sodipodi="http://sodipodi.sourceforge.net/DTD/sodipodi-0.dtd"
   xmlns="http://www.w3.org/2000/svg"
   xmlns:svg="http://www.w3.org/2000/svg">
  <sodipodi:namedview
     id="namedview1"
     pagecolor="#222222"
     bordercolor="#eeeeee"
     borderopacity="1"
     inkscape:showpageshadow="0"
     inkscape:pageopacity="0"
     inkscape:pagecheckerboard="0"
     inkscape:deskcolor="#222222"
     inkscape:document-units="px"
     inkscape:zoom="4.5549462"
     inkscape:cx="9.6598287"
     inkscape:cy="37.651378"
     inkscape:window-width="1920"
     inkscape:window-height="991"
     inkscape:window-x="-9"
     inkscape:window-y="-9"
     inkscape:window-maximized="1"
     inkscape:current-layer="layer1" />
  <defs
     id="defs1">
    <inkscape:path-effect
       effect="fillet_chamfer"
       id="path-effect2"
       is_visible="true"
       lpeversion="1"
       nodesatellites_param="F,0,0,1,0,0.45520376,0,1 @ F,0,1,1,0,0.45520376,0,1 @ F,0,1,1,0,0.45520376,0,1 @ F,0,1,1,0,0.45520376,0,1 @ F,0,1,1,0,0.45520376,0,1 @ F,0,0,1,0,0,0,1 @ F,0,0,1,0,0,0,1 @ F,0,0,1,0,0,0,1 @ F,0,0,1,0,0,0,1 @ F,0,0,1,0,0,0,1 @ F,0,0,1,0,0,0,1 @ F,0,0,1,0,0,0,1 @ F,0,0,1,0,0,0,1 @ F,0,0,1,0,0,0,1 @ F,0,0,1,0,0,0,1 @ F,0,0,1,0,0,0,1 @ F,0,0,1,0,0,0,1 @ F,0,0,1,0,0,0,1"
       radius="0"
       unit="px"
       method="auto"
       mode="F"
       chamfer_steps="1"
       flexible="false"
       use_knot_distance="true"
       apply_no_radius="true"
       apply_with_radius="true"
       only_selected="false"
       hide_knots="false" />
    <inkscape:path-effect
       effect="fillet_chamfer"
       id="path-effect1"
       is_visible="true"
       lpeversion="1"
       nodesatellites_param="F,0,0,1,0,0,0,1 @ F,0,0,1,0,0,0,1 @ F,0,0,1,0,0,0,1 @ F,0,0,1,0,0,0,1 @ F,0,0,1,0,0,0,1 @ F,0,0,1,0,0,0,1 @ F,0,0,1,0,0,0,1 @ F,0,0,1,0,0,0,1 @ F,0,0,1,0,0,0,1 @ F,0,0,1,0,0,0,1 @ F,0,0,1,0,0,0,1 @ F,0,0,1,0,0,0,1 @ F,0,0,1,0,0,0,1 @ F,0,0,1,0,0,0,1 @ F,0,0,1,0,0,0,1 @ F,0,0,1,0,0,0,1 @ F,0,0,1,0,0,0,1 @ F,0,0,1,0,0,0,1"
       radius="0"
       unit="px"
       method="auto"
       mode="F"
       chamfer_steps="1"
       flexible="false"
       use_knot_distance="true"
       apply_no_radius="true"
       apply_with_radius="true"
       only_selected="false"
       hide_knots="false" />
  </defs>
  <path
     style="fill:#ffffff;stroke-linecap:round;stroke-linejoin:round"
     d="M 6.1855469,1.8457031 C 5.9888859,1.8537403 5.817507,1.929155 5.6738281,2.0214844 5.5330663,2.11194 5.4572361,2.2684147 5.453125,2.4160156 c -0.00411,0.147601 0.053268,0.2915498 0.1621094,0.4003907 4e-4,4e-4 0.1048964,0.060405 0.1054687,0.060547 5.723e-4,1.416e-4 0.087147,0.00597 0.087891,0.00586 7.433e-4,-1.057e-4 0.038539,-0.00909 0.050781,-0.013672 0.012242,-0.00458 0.021852,-0.00782 0.029297,-0.011719 0.029778,-0.01561 0.039694,-0.026523 0.050781,-0.035156 0.062378,-0.057576 0.135575,-0.098572 0.2070315,-0.142578 0.1530867,0.025162 0.2602601,0.1604593 0.3691404,0.2675775 l 2.6894531,2.6894531 c 0.065138,0.065138 0.1493054,0.148896 0.2070313,0.2265625 0.057726,0.077667 0.065346,0.1455553 0.068359,0.1230469 -0.00373,0.027836 -0.013726,0.052788 -0.039063,0.078125 L 6.2792969,9.2265625 c -0.061076,0.061075 -0.1296917,0.05977 -0.1914063,-0.00195 L 2.9257813,6.0644531 c -0.061814,-0.061814 -0.06097,-0.1323896 0,-0.1933594 L 4.6152344,4.1816406 v 1.0761719 c 0,0.223043 0.1871138,0.4101562 0.4101562,0.4101562 0.223043,0 0.4082031,-0.1871138 0.4082031,-0.4101562 V 3.2089844 C 5.4335714,2.9859621 5.2484127,2.8008038 5.0253906,2.8007813 H 2.9765625 c -0.223043,0 -0.4082031,0.1851605 -0.4082031,0.4082031 0,0.223043 0.1851605,0.4101562 0.4082031,0.4101562 H 4.0214844 L 2.3476563,5.2929687 c -0.3703984,0.3703984 -0.3680132,0.9796408 0.00195,1.3496094 l 3.1601562,3.1601563 c 0.370022,0.3700216 0.9773085,0.3722746 1.3476563,0.00195 L 10.019531,6.6425781 c 0.370344,-0.3703446 0.370344,-0.9792647 0,-1.3496094 L 7.09375,2.3691406 C 6.9706861,2.2460766 6.7810669,2.000806 6.5039062,1.8964844 6.4272271,1.8676231 6.3487793,1.8507008 6.2714844,1.8457031 c -0.029847,-0.00193 -0.058773,-0.00112 -0.085937,0 z"
     id="path5"
     sodipodi:nodetypes="csssscccssssscscccccsssccssscsccccccssc" />
  <g
     inkscape:label="Layer 1"
     inkscape:groupmode="layer"
     id="layer1" />
</svg>
