<?xml version="1.0" encoding="UTF-8" standalone="no"?>
<!-- Created with Inkscape (http://www.inkscape.org/) -->

<svg
   width="60"
   height="60"
   viewBox="0 0 12 12"
   version="1.1"
   id="svg1"
   inkscape:version="1.4 (86a8ad7, 2024-10-11)"
   xml:space="preserve"
   sodipodi:docname="block.svg"
   xmlns:inkscape="http://www.inkscape.org/namespaces/inkscape"
   xmlns:sodipodi="http://sodipodi.sourceforge.net/DTD/sodipodi-0.dtd"
   xmlns="http://www.w3.org/2000/svg"
   xmlns:svg="http://www.w3.org/2000/svg"><sodipodi:namedview
     id="namedview1"
     pagecolor="#222222"
     bordercolor="#eeeeee"
     borderopacity="1"
     inkscape:showpageshadow="0"
     inkscape:pageopacity="0"
     inkscape:pagecheckerboard="0"
     inkscape:deskcolor="#222222"
     inkscape:document-units="px"
     inkscape:zoom="12.883333"
     inkscape:cx="29.96119"
     inkscape:cy="30"
     inkscape:window-width="1920"
     inkscape:window-height="991"
     inkscape:window-x="-9"
     inkscape:window-y="-9"
     inkscape:window-maximized="1"
     inkscape:current-layer="svg1" /><defs
     id="defs1" /><path
     d="m 6.0001975,3.1 c -0.0232,8.85e-5 -0.046117,0.005 -0.067255,0.014406 L 3.297322,4.2668733 C 3.2381,4.2930183 3.199996,4.3509473 3.2,4.4148252 V 7.585668 c 1.516e-4,0.063738 0.038231,0.1214749 0.097322,0.1475627 l 2.6356203,1.1540248 c 0.011794,0.00394 0.024005,0.00655 0.036397,0.00778 0.00791,0.00214 0.015982,0.00371 0.024133,0.00466 0.025306,0.0015 0.050623,-0.00276 0.073981,-0.012459 L 8.7030731,7.7332308 c 0.058936,-0.026203 0.096846,-0.083918 0.096927,-0.1475627 V 4.4148253 c -4.782e-4,-0.029186 -0.00895,-0.057702 -0.024529,-0.082542 -0.00573,-0.00727 -0.012088,-0.01404 -0.01899,-0.020247 -0.012392,-0.014955 -0.027397,-0.027613 -0.04431,-0.037377 -0.00294,-0.0027 -0.00596,-0.0053 -0.00909,-0.00778 L 6.0674529,3.1144059 C 6.0463139,3.1049959 6.0233979,3.1000889 6.0001975,3.1 Z m 0,0.3395107 2.2301098,0.9753146 -2.297365,1.0049048 c -0.059615,0.026317 -0.097797,0.084819 -0.097322,0.14912 V 8.4889534 L 3.5291553,7.4797657 V 4.5203384 Z"
     style="mix-blend-mode:darken;fill:#ffab00;fill-opacity:1;stroke-width:0.726359;stroke-linecap:round;stroke-linejoin:round"
     id="path5" /><g
     inkscape:label="Layer 1"
     inkscape:groupmode="layer"
     id="layer1" /></svg>
