<?xml version="1.0" encoding="UTF-8" standalone="no"?>
<!-- Created with Inkscape (http://www.inkscape.org/) -->

<svg
   width="60"
   height="60"
   viewBox="0 0 12 12"
   version="1.1"
   id="svg1"
   inkscape:version="1.4 (86a8ad7, 2024-10-11)"
   sodipodi:docname="close.svg"
   xmlns:inkscape="http://www.inkscape.org/namespaces/inkscape"
   xmlns:sodipodi="http://sodipodi.sourceforge.net/DTD/sodipodi-0.dtd"
   xmlns="http://www.w3.org/2000/svg"
   xmlns:svg="http://www.w3.org/2000/svg">
  <sodipodi:namedview
     id="namedview1"
     pagecolor="#222222"
     bordercolor="#eeeeee"
     borderopacity="1"
     inkscape:showpageshadow="0"
     inkscape:pageopacity="0"
     inkscape:pagecheckerboard="0"
     inkscape:deskcolor="#222222"
     inkscape:document-units="px"
     inkscape:zoom="12.883333"
     inkscape:cx="29.96119"
     inkscape:cy="30"
     inkscape:window-width="1920"
     inkscape:window-height="991"
     inkscape:window-x="-9"
     inkscape:window-y="-9"
     inkscape:window-maximized="1"
     inkscape:current-layer="layer1" />
  <defs
     id="defs1" />
  <g
     inkscape:label="Layer 1"
     inkscape:groupmode="layer"
     id="layer1">
    <path
       d="m 7.9894038,4.0105961 c -0.1286601,-0.1286603 -0.3358172,-0.1286602 -0.4644774,0 L 6,5.5355223 4.4750736,4.0105961 c -0.1286603,-0.1286602 -0.3358173,-0.1286603 -0.4644775,0 -0.1286603,0.1286602 -0.1286602,0.3358172 0,0.4644774 L 5.5355223,6 4.0105961,7.5249264 c -0.1286602,0.1286602 -0.1286603,0.3358172 0,0.4644774 0.1286602,0.1286603 0.3358172,0.1286602 0.4644775,0 L 6,6.4644776 7.5249264,7.9894038 c 0.1286602,0.1286602 0.3358173,0.1286603 0.4644774,0 0.1286603,-0.1286602 0.1286603,-0.3358172 0,-0.4644774 L 6.4644776,6.0000001 7.9894038,4.4750735 c 0.1286602,-0.1286602 0.1286603,-0.3358172 0,-0.4644774 z"
       style="fill:#333333;stroke-width:0.296642;stroke-linecap:round;stroke-linejoin:round"
       id="path1"
       sodipodi:nodetypes="sscssscssscssscss" />
  </g>
</svg>
