<?xml version="1.0" encoding="UTF-8" standalone="no"?>
<!-- Created with Inkscape (http://www.inkscape.org/) -->

<svg
   width="60"
   height="60"
   viewBox="0 0 12 12"
   version="1.1"
   id="svg1"
   inkscape:version="1.4 (86a8ad7, 2024-10-11)"
   xml:space="preserve"
   sodipodi:docname="page.svg"
   xmlns:inkscape="http://www.inkscape.org/namespaces/inkscape"
   xmlns:sodipodi="http://sodipodi.sourceforge.net/DTD/sodipodi-0.dtd"
   xmlns="http://www.w3.org/2000/svg"
   xmlns:svg="http://www.w3.org/2000/svg"><sodipodi:namedview
     id="namedview1"
     pagecolor="#222222"
     bordercolor="#eeeeee"
     borderopacity="1"
     inkscape:showpageshadow="0"
     inkscape:pageopacity="0"
     inkscape:pagecheckerboard="0"
     inkscape:deskcolor="#222222"
     inkscape:document-units="px"
     inkscape:zoom="11.313709"
     inkscape:cx="33.764349"
     inkscape:cy="31.422058"
     inkscape:window-width="1920"
     inkscape:window-height="991"
     inkscape:window-x="-9"
     inkscape:window-y="-9"
     inkscape:window-maximized="1"
     inkscape:current-layer="layer1" /><defs
     id="defs1"><inkscape:perspective
       sodipodi:type="inkscape:persp3d"
       inkscape:vp_x="4.0847937 : -1.8570593 : 1"
       inkscape:vp_y="-168.64817 : -981.47439 : 1"
       inkscape:vp_z="4.0847937 : -1.8570593 : 1"
       inkscape:persp3d-origin="5 : 3.3333333 : 1"
       id="perspective7" /></defs><g
     inkscape:label="Layer 1"
     inkscape:groupmode="layer"
     id="layer1"><g
       id="g19"
       style="fill:#6404b3;fill-opacity:1;stroke:#22c4b5;stroke-opacity:1"
       transform="matrix(1.0110372,0,0,0.99809973,0.74491597,0.56055155)"><path
         d="m 4.9999019,1.3419995 c -0.037494,-1.053e-4 -0.074419,0.00916 -0.1074219,0.026953 l -1.8339844,1 c -0.00132,0.00129 -0.00262,0.00259 -0.00391,0.00391 -0.018604,0.013311 -0.035069,0.029381 -0.048828,0.047656 -0.012059,0.0099 -0.023056,0.021028 -0.032812,0.033203 -0.00819,0.014117 -0.01469,0.028841 -0.019531,0.04375 -0.00274,0.00843 -0.00455,0.016825 -0.00625,0.025391 -0.00123,0.00557 -0.00233,0.01114 -0.00312,0.016797 -0.00125,0.00883 -0.00263,0.017549 -0.00273,0.026563 V 4.6502026 L 1.2596675,5.5681714 c -0.00145,0.00128 -0.00288,0.00259 -0.0043,0.00391 -0.013076,0.010118 -0.024997,0.021646 -0.035547,0.034375 -0.018612,0.013935 -0.034952,0.03067 -0.048438,0.049609 -0.019117,0.033979 -0.029078,0.072341 -0.028906,0.1113281 v 0.00352 2.1625 c 8.61e-5,0.082227 0.045017,0.1578606 0.1171875,0.1972656 l 1.8242187,0.9957031 0.00313,0.00156 c 0.030567,0.016988 0.064672,0.026617 0.099609,0.028125 0.00559,4.696e-4 0.01119,7.302e-4 0.016797,7.813e-4 0.034655,-4.228e-4 0.068744,-0.00884 0.099609,-0.024609 0.00183,-4.978e-4 0.00365,-0.00102 0.00547,-0.00156 l 1.6914063,-0.9230469 1.6835937,0.91875 0.00313,0.00156 c 0.030567,0.016988 0.064672,0.026617 0.099609,0.028125 0.00559,4.696e-4 0.01119,7.302e-4 0.016797,7.813e-4 0.034655,-4.228e-4 0.068744,-0.00884 0.099609,-0.024609 0.00183,-4.978e-4 0.00365,-0.00102 0.00547,-0.00156 l 1.8320312,-1 C 8.812307,8.0912664 8.8572376,8.0156333 8.8573237,7.9334058 V 5.7673901 c -3.402e-4,-0.00274 -7.309e-4,-0.00548 -0.00117,-0.0082 -5.472e-4,-0.016484 -0.00291,-0.032859 -0.00703,-0.048828 -0.00167,-0.00646 -0.00362,-0.01285 -0.00586,-0.019141 -0.00501,-0.014146 -0.011422,-0.027756 -0.019141,-0.040625 -0.00444,-0.00703 -0.00926,-0.013814 -0.014453,-0.020312 -0.00819,-0.010831 -0.01734,-0.020898 -0.027344,-0.030078 -0.00707,-0.00605 -0.014504,-0.011664 -0.022266,-0.016797 -0.00635,-0.00544 -0.013003,-0.010531 -0.019922,-0.015234 L 7.0584956,4.6502026 V 2.5662183 c -9.362e-4,-0.00393 -0.00198,-0.00784 -0.00312,-0.011719 -0.00137,-0.033125 -0.010038,-0.065538 -0.025391,-0.094922 -0.00225,-0.00345 -0.0046,-0.00684 -0.00703,-0.010156 -0.018069,-0.029411 -0.042661,-0.054271 -0.071875,-0.072656 -0.00142,-0.00119 -0.00285,-0.00236 -0.0043,-0.00352 -0.0018,-0.00146 -0.00362,-0.00289 -0.00547,-0.0043 l -1.8339844,-1 c -0.033004,-0.017786 -0.06993,-0.027051 -0.1074233,-0.026946 z m 0,0.4800781 L 6.3647456,2.5662183 4.9999019,3.3103589 3.6350581,2.5662183 Z M 3.39248,2.9451245 3.739355,3.1345776 4.7752925,3.6994214 V 5.3533276 L 3.39248,4.5994214 V 2.9455152 Z m 3.2148437,0 v 3.907e-4 L 6.2604487,3.1345776 Z M 3.1991206,5.0232495 4.56123,5.7669995 4.5624,5.7673901 3.22373,6.4962964 3.2002925,6.509187 H 3.1999019 L 3.1991206,6.5095776 2.4354487,6.0919995 1.8377925,5.765437 Z m 3.6015625,0 L 8.1620112,5.765437 7.564355,6.0919995 6.8006831,6.5095776 6.7999019,6.509187 H 6.7995112 L 6.7760737,6.4962964 5.4374019,5.7673901 5.4385737,5.7669995 Z M 5.0264644,5.5427808 c 0.00489,-1.139e-4 0.00959,1.872e-4 0.014453,3.906e-4 -0.013624,-5.51e-4 -0.027348,7.2e-6 -0.041016,0.00195 v 0.00508 c -0.00478,-0.00133 -0.0096,-0.0025 -0.014453,-0.00352 0.0048,-6.763e-4 0.00962,-0.0012 0.014453,-0.00156 0.00882,-0.00126 0.017743,-0.00214 0.026562,-0.00234 z M 1.5916987,6.1462964 2.2186519,6.4880933 2.9745112,6.9002026 v 3.907e-4 1.6539062 L 1.5916987,7.7986401 Z m 6.8164063,0 V 7.7986401 L 7.0252925,8.5544995 V 6.9005933 6.9002026 L 7.7811519,6.4880933 Z M 4.7420894,6.1822344 V 6.182625 7.8349688 L 3.4256831,8.5544995 V 6.9005933 6.9002026 L 4.1815425,6.4880933 Z m 0.515625,0 0.5605468,0.3058594 0.7558594,0.4121093 V 6.9005938 8.5545 L 5.2577144,7.8349683 Z"
         style="fill:#6404b3;fill-opacity:1;stroke:none;stroke-linecap:round;stroke-linejoin:round"
         id="path3" /></g></g></svg>
