<svg xmlns="http://www.w3.org/2000/svg" width="164" height="164"
    viewBox="-15 -7 130 140" class="looka-1j8o68f">
    <defs>
        <linearGradient id="briiklyGradient" x1="0%" y1="0%" x2="100%" y2="100%">
            <stop offset="0%" style="stop-color:#30D5C8;stop-opacity:1" />
            <stop offset="100%" style="stop-color:#20C1B2;stop-opacity:1" />
        </linearGradient>
    </defs>
    <defs id="SvgjsDefs2494" />
    <g id="SvgjsG2495" featurekey="AgVF85-0"
        transform="matrix(0.9552167799592208,0,0,0.9552167799592208,-18.429362844346862,-5.948997070480033)"
        fill="url(#briiklyGradient)">
        <path
            d="M96.63 57.12q11.83 7.36 23.98 14.42c4.75 2.76 4.29 5.89-.18 8.46q-3.3 1.89-6.48 3.64-.8.44-.02.91l6.97 4.19a4.64 4.63-74.5 0 1 2.24 3.97v17.42a4.2 4.2 0 0 1-2.05 3.61q-10.37 6.18-21.01 12.58c-2.5 1.51-3.82 1.71-6.39.13q-13.16-8.08-21.94-13.31a.63.63 0 0 0-.64 0l-23.23 13.88a4.18 4.15 45 0 1-4.27-.01l-21.55-12.96a3.87 3.86 15.6 0 1-1.87-3.31q.01-11.33-.01-17.49-.02-3.31 2.55-4.76 3.07-1.73 6.62-4.05a.31.31 0 0 0-.02-.53q-6.07-3.54-8.62-5.19-1.57-1.02-1.4-3.41c.15-1.92 1.7-2.78 3.31-3.74q9.73-5.76 23.85-14.27.46-.28.16-.73c-.49-.73-1.02-1.43-1.03-2.51q-.02-17.99.01-25.14a4.73 4.72 74.6 0 1 2.28-4.03q9.96-5.99 20.84-12.4 2.97-1.75 5.04-.52 15.95 9.45 20.69 12.07 3.17 1.74 3.2 4.7.1 12.03-.04 25.02-.01.82-1.17 2.58-.31.48.18.78m-25.56-12.7q.53-2.61 2.69-3.93 5.89-3.61 17.45-11.03a.31.31 0 0 0-.01-.53L72.17 17.49a.79.79 0 0 0-.82 0L52.33 28.85a1.95 1.95 0 0 0-.94 1.67v22.29a2.23 2.22 15.7 0 0 1.07 1.9l18.03 10.84a.36.35-74.5 0 0 .54-.31l.02-20.56a1.77 1.64-42.8 0 1 .02-.26m26.42 28.32c2.06 1.44 2.23 4.4-.02 5.75Q79.09 89.54 73.35 92.96a3.74 3.72 44.9 0 1-3.83-.01Q59.11 86.71 47.76 79.7c-1.31-.81-2.87-1.56-3.41-2.97-.87-2.26.63-3.76 2.48-4.89q5.13-3.1 11.23-6.78a.16.16 0 0 0 0-.27l-6.3-3.78q-.24-.15-.48 0L27.46 75.24a.47.47 0 0 0-.01.81l43.38 26.09a1.14 1.12 44.6 0 0 1.15 0l43.89-26.22a.3.3 0 0 0 0-.52L91.29 60.62q-.17-.11-.34 0l-6.4 3.82a.18.17 44 0 0 .01.3q8.83 5.14 12.93 8m-32 11.01q0 .18.08.23 2.9 1.66 5.73 3.44.01.01.14.02.06.01.12.01t.12-.01q.13-.01.14-.02 2.83-1.78 5.73-3.44.07-.05.07-.23t-.07-.23q-2.9-1.66-5.73-3.44-.01-.01-.14-.02-.06-.01-.12-.01t-.12.01q-.13.01-.14.02-2.83 1.78-5.73 3.44-.08.05-.08.23M45.6 121.56a.35.35 0 0 0 .36 0l22.62-13.51a.35.35 0 0 0 0-.6l-19.1-11.48a.35.35 0 0 0-.36 0l-22.62 13.5a.35.35 0 0 0 0 .6zm70.54-11.46a.34.34 0 0 0 0-.58L93.65 95.99a.34.34 0 0 0-.34 0l-19.13 11.43a.34.34 0 0 0 0 .58l22.49 13.53a.34.34 0 0 0 .34 0z" />
    </g>
</svg>