<?xml version="1.0" encoding="UTF-8" standalone="no"?>
<!-- Created with Inkscape (http://www.inkscape.org/) -->

<svg
   width="60"
   height="60"
   viewBox="0 0 12 12"
   version="1.1"
   id="svg1"
   inkscape:version="1.4 (86a8ad7, 2024-10-11)"
   sodipodi:docname="download.svg"
   xmlns:inkscape="http://www.inkscape.org/namespaces/inkscape"
   xmlns:sodipodi="http://sodipodi.sourceforge.net/DTD/sodipodi-0.dtd"
   xmlns:xlink="http://www.w3.org/1999/xlink"
   xmlns="http://www.w3.org/2000/svg"
   xmlns:svg="http://www.w3.org/2000/svg">
  <sodipodi:namedview
     id="namedview1"
     pagecolor="#222222"
     bordercolor="#eeeeee"
     borderopacity="1"
     inkscape:showpageshadow="0"
     inkscape:pageopacity="0"
     inkscape:pagecheckerboard="0"
     inkscape:deskcolor="#222222"
     inkscape:document-units="px"
     inkscape:zoom="6.4416667"
     inkscape:cx="20.72445"
     inkscape:cy="36.248383"
     inkscape:window-width="1920"
     inkscape:window-height="991"
     inkscape:window-x="-9"
     inkscape:window-y="-9"
     inkscape:window-maximized="1"
     inkscape:current-layer="layer1" />
  <defs
     id="defs1">
    <linearGradient
       inkscape:collect="always"
       xlink:href="#linearGradient8"
       id="linearGradient9"
       x1="1.78152"
       y1="0.99896008"
       x2="10.981521"
       y2="11.127776"
       gradientUnits="userSpaceOnUse"
       gradientTransform="translate(-0.8)" />
    <linearGradient
       id="linearGradient8"
       inkscape:collect="always">
      <stop
         style="stop-color:#00961e;stop-opacity:1;"
         offset="0"
         id="stop8" />
      <stop
         style="stop-color:#4796da;stop-opacity:1;"
         offset="1"
         id="stop9" />
    </linearGradient>
  </defs>
  <g
     inkscape:label="Layer 1"
     inkscape:groupmode="layer"
     id="layer1">
    <path
       d="M 9.4,0.6 C 9.178391,0.6 8.9996094,0.77839101 8.9996094,1 V 1.8 H 8.2 c -0.2216089,0 -0.4,0.178391 -0.4,0.4 0,0.2216089 0.1783911,0.4003906 0.4,0.4003906 H 8.9996094 V 3.4 c 0,0.2216089 0.1787816,0.4 0.4003906,0.4 0.2216093,0 0.4,-0.1783911 0.4,-0.4 V 2.6003906 h 0.8 C 10.821609,2.6003906 11,2.4216089 11,2.2 11,1.978391 10.821609,1.8 10.6,1.8 H 9.8 V 1 C 9.8,0.77839101 9.6216093,0.6 9.4,0.6 Z M 5.2,0.8 C 4.7568,0.8 4.4,1.2565321 4.4,1.8238281 V 4.46875 L 3.7664063,3.8351563 c -0.3133896,-0.3133898 -0.8178603,-0.3133898 -1.13125,0 -0.3133898,0.3133896 -0.3133899,0.8178604 0,1.13125 l 1.9796875,1.9800781 c 0.09355,0.09355 0.2044212,0.158395 0.321875,0.1960937 C 5.0192267,7.1792121 5.1075088,7.2 5.2,7.2 5.3166562,7.2 5.4271997,7.1679075 5.5269531,7.1109375 5.6136351,7.0720745 5.6950394,7.0178515 5.7664062,6.9464844 L 7.7464844,4.9664063 c 0.31339,-0.3133896 0.31339,-0.8178603 0,-1.13125 C 7.5897904,3.6784614 7.3850317,3.6 7.1804687,3.6 6.9759057,3.6 6.7715388,3.678461 6.6148438,3.8351563 L 6,4.45 V 1.8238281 C 6,1.2565321 5.6432,0.8 5.2,0.8 Z m -3.6,5 C 1.1568,5.8 0.8,6.1568 0.8,6.6 v 2 C 0.80313,8.9560876 0.88545602,9.3070169 1.0410156,9.6273438 1.2776475,10.12292 1.6770803,10.522353 2.1726563,10.758984 2.4929829,10.914544 2.8439124,10.996873 3.2,11 H 7.6 C 7.956088,10.9969 8.3070167,10.91454 8.6273438,10.758984 9.1229198,10.522353 9.5223534,10.12292 9.7589844,9.6273438 9.9145444,9.3070169 9.996873,8.9560876 10,8.6 v -2 C 10,6.1568 9.6432001,5.8 9.2,5.8 8.8435641,5.8 8.5434701,6.0310578 8.4394531,6.3519531 8.4141331,6.4300661 8.4,6.5132357 8.4,6.6 v 2 C 8.4,9.0418278 8.041828,9.4 7.6,9.4 H 5.4605469 5.3394531 3.2 C 2.7581722,9.4 2.4,9.0418278 2.4,8.6 v -2 C 2.4,6.513801 2.3859415,6.4311883 2.3609375,6.3535156 2.2573813,6.0318248 1.9570015,5.8 1.6,5.8 Z"
       style="fill:url(#linearGradient9);stroke:#f8bb6a;stroke-width:0;stroke-linecap:round;stroke-linejoin:round"
       id="path1"
       sodipodi:nodetypes="sscssscssscssscsssscsscccsccsssscssssccccccccssssssccsssss" />
  </g>
</svg>
